<svg width="24" height="21" viewBox="0 0 24 21" fill="none" xmlns="http://www.w3.org/2000/svg">
<path opacity="0.4" d="M0.857143 11.38H12.1429C12.3702 11.38 12.5882 11.291 12.7489 11.1325C12.9097 10.974 13 10.7591 13 10.535V8.845C13 8.62089 12.9097 8.40596 12.7489 8.24749C12.5882 8.08903 12.3702 8 12.1429 8H0.857143C0.629814 8 0.411797 8.08903 0.251051 8.24749C0.0903059 8.40596 0 8.62089 0 8.845L0 10.535C0 10.7591 0.0903059 10.974 0.251051 11.1325C0.411797 11.291 0.629814 11.38 0.857143 11.38Z" fill="white"/>
<path d="M18.6429 16.875H0.857143C0.629814 16.875 0.411797 16.9639 0.251051 17.1221C0.0903059 17.2804 0 17.495 0 17.7188L0 19.4062C0 19.63 0.0903059 19.8446 0.251051 20.0029C0.411797 20.1611 0.629814 20.25 0.857143 20.25H18.6429C18.8702 20.25 19.0882 20.1611 19.2489 20.0029C19.4097 19.8446 19.5 19.63 19.5 19.4062V17.7188C19.5 17.495 19.4097 17.2804 19.2489 17.1221C19.0882 16.9639 18.8702 16.875 18.6429 16.875ZM23.1429 0H0.857143C0.629814 0 0.411797 0.088895 0.251051 0.247129C0.0903059 0.405363 0 0.619974 0 0.84375L0 2.53125C0 2.75503 0.0903059 2.96964 0.251051 3.12787C0.411797 3.28611 0.629814 3.375 0.857143 3.375H23.1429C23.3702 3.375 23.5882 3.28611 23.7489 3.12787C23.9097 2.96964 24 2.75503 24 2.53125V0.84375C24 0.619974 23.9097 0.405363 23.7489 0.247129C23.5882 0.088895 23.3702 0 23.1429 0Z" fill="white"/>
</svg>
